<svg xmlns="http://www.w3.org/2000/svg" width="1024" height="1024" viewBox="0 0 100 100">
<defs>
<linearGradient id="tile" x1="0" y1="0" x2="0" y2="1"><stop offset="0" stop-color="#34363f"/><stop offset="1" stop-color="#121317"/></linearGradient>
<linearGradient id="edge" x1="0" y1="0" x2="0" y2="1"><stop offset="0" stop-color="#fff" stop-opacity=".28"/><stop offset=".45" stop-color="#fff" stop-opacity=".04"/><stop offset="1" stop-color="#fff" stop-opacity=".1"/></linearGradient>
<linearGradient id="main" gradientUnits="userSpaceOnUse" x1="22" y1="78" x2="78" y2="22"><stop offset="0" stop-color="#3d7bff"/><stop offset=".55" stop-color="#6f8dff"/><stop offset="1" stop-color="#b07cff"/></linearGradient>
<linearGradient id="perf" gradientUnits="userSpaceOnUse" x1="10" y1="0" x2="90" y2="0"><stop offset="0" stop-color="#3d7bff" stop-opacity=".55"/><stop offset="1" stop-color="#b07cff" stop-opacity=".9"/></linearGradient>
<radialGradient id="glow" cx=".5" cy=".52" r=".42"><stop offset="0" stop-color="#5a7dff" stop-opacity="0.38"/><stop offset="1" stop-color="#5a7dff" stop-opacity="0"/></radialGradient>
</defs>
<rect width="100" height="100" rx="22" fill="url(#tile)"/>
<rect x="1.5" y="1.5" width="97" height="97" rx="20.5" fill="none" stroke="url(#edge)" stroke-width="3"/>
<circle cx="50" cy="50" r="40" fill="url(#glow)"/>
<g fill="url(#perf)"><rect x="13" y="7" width="10" height="7" rx="2"/><rect x="45" y="7" width="10" height="7" rx="2"/><rect x="77" y="7" width="10" height="7" rx="2"/><rect x="13" y="86" width="10" height="7" rx="2"/><rect x="45" y="86" width="10" height="7" rx="2"/><rect x="77" y="86" width="10" height="7" rx="2"/></g>
<g fill="url(#main)"><rect x="30" y="44" width="5" height="12" rx="2.5"/><rect x="38" y="34" width="5" height="32" rx="2.5"/><rect x="46" y="30" width="5" height="40" rx="2.5"/><rect x="54" y="36" width="5" height="28" rx="2.5"/><rect x="62" y="42" width="5" height="16" rx="2.5"/></g>
</svg>
